<svg width="45" height="78" viewBox="0 0 45 78" fill="none" xmlns="http://www.w3.org/2000/svg">
<path d="M38.7256 0.5H5.63965C2.52987 0.5 0 3.02987 0 6.13965V71.8604C0 74.9701 2.52987 77.5 5.63965 77.5H38.7256C41.8354 77.5 44.3652 74.9701 44.3652 71.8604V6.13965C44.3652 3.02987 41.8354 0.5 38.7256 0.5ZM42.1094 61.709H10.1514C9.52845 61.709 9.02344 62.214 9.02344 62.8369C9.02344 63.4598 9.52845 63.9648 10.1514 63.9648H42.1094V71.8604C42.1094 73.7262 40.5915 75.2441 38.7256 75.2441H5.63965C3.77375 75.2441 2.25586 73.7262 2.25586 71.8604V63.9648H5.63965C6.26257 63.9648 6.76758 63.4598 6.76758 62.8369C6.76758 62.214 6.26257 61.709 5.63965 61.709H2.25586V11.7793H42.1094V61.709ZM42.1094 9.52344H2.25586V6.13965C2.25586 4.27375 3.77375 2.75586 5.63965 2.75586H38.7256C40.5915 2.75586 42.1094 4.27375 42.1094 6.13965V9.52344Z" fill="#FFB541"/>
<path d="M26.6943 5.01172H22.1826C21.5597 5.01172 21.0547 5.51673 21.0547 6.13965C21.0547 6.76257 21.5597 7.26758 22.1826 7.26758H26.6943C27.3173 7.26758 27.8223 6.76257 27.8223 6.13965C27.8223 5.51673 27.3173 5.01172 26.6943 5.01172Z" fill="#FFB541"/>
<path d="M22.1826 66.2207C20.3167 66.2207 18.7988 67.7386 18.7988 69.6045C18.7988 71.4704 20.3167 72.9883 22.1826 72.9883C24.0485 72.9883 25.5664 71.4704 25.5664 69.6045C25.5664 67.7386 24.0485 66.2207 22.1826 66.2207ZM22.1826 70.7324C21.5606 70.7324 21.0547 70.2265 21.0547 69.6045C21.0547 68.9825 21.5606 68.4766 22.1826 68.4766C22.8046 68.4766 23.3105 68.9825 23.3105 69.6045C23.3105 70.2265 22.8046 70.7324 22.1826 70.7324Z" fill="#FFB541"/>
<path d="M17.6709 7.26758C18.2938 7.26758 18.7988 6.76259 18.7988 6.13965C18.7988 5.51671 18.2938 5.01172 17.6709 5.01172C17.048 5.01172 16.543 5.51671 16.543 6.13965C16.543 6.76259 17.048 7.26758 17.6709 7.26758Z" fill="#FFB541"/>
<path d="M26.7955 37.6077C26.6998 37.3961 26.4894 37.2614 26.2577 37.2614H23.8937V29.5783C23.8937 29.2521 23.6289 28.9873 23.3027 28.9873H20.9387C20.6124 28.9873 20.3477 29.2521 20.3477 29.5783V37.2614H17.9837C17.752 37.2614 17.5416 37.3973 17.4458 37.6077C17.3489 37.8193 17.3867 38.0663 17.5392 38.2413L21.6762 42.9693C21.7885 43.0981 21.9505 43.1714 22.1207 43.1714C22.2909 43.1714 22.4528 43.0969 22.5651 42.9693L26.7021 38.2413C26.8558 38.0675 26.8913 37.8193 26.7955 37.6077Z" fill="#FFB541"/>
<path d="M28.622 41.9897V45.5358H15.6199V41.9897H13.2559V46.7178C13.2559 47.3714 13.7854 47.8998 14.4379 47.8998H29.804C30.4576 47.8998 30.986 47.3714 30.986 46.7178V41.9897H28.622Z" fill="#FFB541"/>
<circle cx="22.1816" cy="39" r="16.9189" stroke="#FFB541" stroke-width="2.25586"/>
</svg>
