<svg width="80" height="77" viewBox="0 0 80 77" fill="none" xmlns="http://www.w3.org/2000/svg">
<path d="M79.0209 42.157C78.31 35.0069 75.1156 28.266 70.0259 23.1761C65.6762 18.8266 60.3523 16.0315 54.7504 14.7887V10.8597C57.0384 10.2904 58.7391 8.21938 58.7391 5.7577C58.7391 2.85854 56.3806 0.5 53.4814 0.5H42.3475C39.4483 0.5 37.0898 2.85854 37.0898 5.7577C37.0898 8.21923 38.7905 10.2903 41.0784 10.8597V14.7997C35.4936 16.0478 30.1874 18.839 25.8501 23.1763C24.9009 24.1255 24.0257 25.1212 23.2245 26.156C23.1857 26.1531 23.1469 26.1501 23.1073 26.1501H12.0876C11.2337 26.1501 10.5412 26.8425 10.5412 27.6965C10.5412 28.5506 11.2337 29.2429 12.0876 29.2429H21.1203C19.9865 31.1411 19.0723 33.1345 18.3764 35.1866H1.54638C0.69247 35.1866 0 35.8789 0 36.733C0 37.587 0.69247 38.2793 1.54638 38.2793H17.5026C17.0569 40.2357 16.8011 42.2266 16.7351 44.2232H9.89684C9.04293 44.2232 8.35046 44.9155 8.35046 45.7695C8.35046 46.6236 9.04293 47.3159 9.89684 47.3159H16.7844C16.9149 49.3176 17.2367 51.3087 17.75 53.2597H7.73191C6.878 53.2597 6.18553 53.9521 6.18553 54.8061C6.18553 55.6602 6.878 56.3525 7.73191 56.3525H18.7369C20.2539 60.3655 22.6246 64.1268 25.8501 67.3522C30.9448 72.4469 37.6926 75.6421 44.8502 76.3492C45.8717 76.4501 46.894 76.5 47.9149 76.5C53.9492 76.5 59.9068 74.7537 64.9619 71.4617C65.6776 70.9957 65.88 70.0377 65.4139 69.322C64.9479 68.6063 63.9899 68.4039 63.2742 68.87C52.2088 76.0757 37.3893 74.5177 28.037 65.1653C17.0635 54.1919 17.0635 36.3369 28.037 25.3633C39.0103 14.3901 56.8652 14.3901 67.8388 25.3633C77.1788 34.7035 78.7453 49.5102 71.5634 60.5703C71.0983 61.2865 71.3019 62.2444 72.0181 62.7094C72.7347 63.1745 73.6922 62.9709 74.1572 62.2546C77.9944 56.3451 79.7217 49.2078 79.0209 42.157ZM40.1826 5.75785C40.1826 4.56404 41.1537 3.59292 42.3475 3.59292H53.4814C54.6753 3.59292 55.6464 4.56404 55.6464 5.75785C55.6464 6.95166 54.6753 7.92278 53.4814 7.92278H53.204H42.6248H42.3475C41.1537 7.92278 40.1826 6.9515 40.1826 5.75785ZM44.1711 14.2681V11.0155H51.6576V14.2625C49.1717 13.9668 46.6566 13.9687 44.1711 14.2681Z" fill="#FFB541"/>
<path d="M68.9331 64.7119C68.5248 64.7119 68.1274 64.8774 67.84 65.165C67.5508 65.4526 67.3867 65.8516 67.3867 66.2583C67.3867 66.665 67.5508 67.0639 67.84 67.3515C68.1274 67.6407 68.525 67.8046 68.9331 67.8046C69.3398 67.8046 69.7372 67.6407 70.0264 67.3515C70.314 67.0639 70.4794 66.665 70.4794 66.2583C70.4794 65.8516 70.3141 65.4526 70.0264 65.165C69.7372 64.8774 69.3396 64.7119 68.9331 64.7119Z" fill="#FFB541"/>
<path d="M47.9361 21.2754C34.7087 21.2754 23.9473 32.0367 23.9473 45.2642C23.9473 58.4918 34.7087 69.2531 47.9361 69.2531C61.1636 69.2531 71.925 58.4918 71.925 45.2642C71.925 32.0367 61.1636 21.2754 47.9361 21.2754ZM47.9361 66.1603C36.4139 66.1603 27.04 56.7863 27.04 45.2642C27.04 33.7422 36.4139 24.3682 47.9361 24.3682C59.4584 24.3682 68.8322 33.7422 68.8322 45.2642C68.8322 56.7863 59.4584 66.1603 47.9361 66.1603Z" fill="#FFB541"/>
<path d="M57.7202 33.2952L50.061 40.9543C49.4205 40.6376 48.7 40.4586 47.9384 40.4586C47.1767 40.4586 46.4564 40.6376 45.8159 40.9543L42.388 37.5264C41.784 36.9225 40.8051 36.9225 40.2009 37.5264C39.5971 38.1303 39.5971 39.1094 40.2009 39.7133L43.6288 43.1411C43.312 43.7817 43.1332 44.5021 43.1332 45.2637C43.1332 47.9133 45.2887 50.0689 47.9384 50.0689C50.5881 50.0689 52.7436 47.9133 52.7436 45.2637C52.7436 44.5021 52.5647 43.7817 52.248 43.1411L59.6824 35.7068L59.9071 35.4821C60.511 34.8782 60.511 33.899 59.9071 33.2952C59.3032 32.6913 58.3244 32.6913 57.7202 33.2952ZM47.9384 46.9763C46.9942 46.9763 46.226 46.2081 46.226 45.2639C46.226 44.3196 46.9942 43.5514 47.9384 43.5514C48.8826 43.5514 49.6509 44.3196 49.6509 45.2639C49.6509 46.2081 48.8826 46.9763 47.9384 46.9763Z" fill="#FFB541"/>
<path d="M64.4693 43.7363H63.0366C62.1827 43.7363 61.4902 44.4286 61.4902 45.2827C61.4902 46.1367 62.1827 46.829 63.0366 46.829H64.4693C65.3232 46.829 66.0157 46.1367 66.0157 45.2827C66.0157 44.4286 65.3232 43.7363 64.4693 43.7363Z" fill="#FFB541"/>
<path d="M32.8363 43.6992H31.4038C30.5499 43.6992 29.8574 44.3915 29.8574 45.2456C29.8574 46.0996 30.5499 46.7919 31.4038 46.7919H32.8363C33.6902 46.7919 34.3827 46.0996 34.3827 45.2456C34.3827 44.3915 33.6902 43.6992 32.8363 43.6992Z" fill="#FFB541"/>
<path d="M47.9585 31.7093C48.8124 31.7093 49.5048 31.017 49.5048 30.163V28.7304C49.5048 27.8764 48.8124 27.1841 47.9585 27.1841C47.1046 27.1841 46.4121 27.8764 46.4121 28.7304V30.163C46.4121 31.017 47.1046 31.7093 47.9585 31.7093Z" fill="#FFB541"/>
<path d="M47.9175 58.8188C47.0636 58.8188 46.3711 59.5112 46.3711 60.3652V61.7978C46.3711 62.6518 47.0636 63.3441 47.9175 63.3441C48.7713 63.3441 49.4638 62.6518 49.4638 61.7978V60.3652C49.4638 59.5112 48.7713 58.8188 47.9175 58.8188Z" fill="#FFB541"/>
<path d="M1.54636 53.2593C1.13967 53.2593 0.740705 53.4247 0.453083 53.7124C0.16546 54 0 54.3989 0 54.8056C0 55.2139 0.165306 55.6113 0.453083 55.8989C0.74086 56.1865 1.13967 56.352 1.54636 56.352C1.95305 56.352 2.35201 56.1865 2.63948 55.8989C2.9271 55.6113 3.09271 55.2123 3.09271 54.8056C3.09271 54.3989 2.92725 54 2.63948 53.7124C2.35201 53.4247 1.95305 53.2593 1.54636 53.2593Z" fill="#FFB541"/>
</svg>
