<svg width="72" height="73" viewBox="0 0 72 73" fill="none" xmlns="http://www.w3.org/2000/svg">
<path d="M57.9521 26.5488L59.6489 24.852L56.8973 22.1004H70.8005V19.7004H56.8973L59.6489 16.9488L57.9521 15.252L53.1521 20.052C52.9272 20.277 52.8008 20.5822 52.8008 20.9004C52.8008 21.2186 52.9272 21.5237 53.1521 21.7488L57.9521 26.5488Z" fill="#FFB541"/>
<path d="M70.596 35.504C69.7454 34.6506 68.6035 34.1504 67.3995 34.1036C66.1954 34.0569 65.0182 34.4671 64.104 35.252C63.6843 34.5362 63.0848 33.9426 62.3649 33.53C61.645 33.1175 60.8297 32.9003 60 32.9C59.4633 32.8924 58.93 32.9861 58.428 33.176C57.8718 33.3725 57.3585 33.6739 56.916 34.064C56.4937 33.347 55.8923 32.7521 55.1707 32.3376C54.4491 31.9232 53.6321 31.7035 52.8 31.7C51.9555 31.7024 51.127 31.9303 50.4 32.36V12.5C50.4 11.227 49.8943 10.0061 48.9941 9.10589C48.0939 8.20571 46.873 7.7 45.6 7.7C44.7555 7.70245 43.927 7.93029 43.2 8.36V4.1C43.1972 3.1461 42.817 2.23208 42.1424 1.55756C41.4679 0.883048 40.5539 0.502849 39.6 0.5H10.8C9.8461 0.502849 8.93208 0.883048 8.25756 1.55756C7.58305 2.23208 7.20285 3.1461 7.2 4.1V28.1H6C4.4087 28.1 2.88258 28.7321 1.75736 29.8574C0.632141 30.9826 0 32.5087 0 34.1V39.008L2.4 64.16V71.3C2.4 71.6183 2.52643 71.9235 2.75147 72.1485C2.97652 72.3736 3.28174 72.5 3.6 72.5H30C30.3183 72.5 30.6235 72.3736 30.8485 72.1485C31.0736 71.9235 31.2 71.6183 31.2 71.3V64.484L35.664 58.1H38.244L39.6 61.904V71.3C39.6 71.6183 39.7264 71.9235 39.9515 72.1485C40.1765 72.3736 40.4817 72.5 40.8 72.5H64.8C65.1183 72.5 65.4235 72.3736 65.6485 72.1485C65.8736 71.9235 66 71.6183 66 71.3V61.904L71.508 46.472C71.8321 45.5671 71.9986 44.6132 72 43.652V38.9C72.0005 38.2695 71.8768 37.645 71.6359 37.0623C71.395 36.4796 71.0416 35.9501 70.596 35.504ZM28.8 70.1H4.8V65.3H28.8V70.1ZM29.376 62.9H4.692L2.4 38.9V34.1C2.40285 33.1461 2.78305 32.2321 3.45756 31.5576C4.13208 30.883 5.0461 30.5028 6 30.5H14.4C15.3548 30.5 16.2705 30.8793 16.9456 31.5544C17.6207 32.2295 18 33.1452 18 34.1C18 35.0548 17.6207 35.9705 16.9456 36.6456C16.2705 37.3207 15.3548 37.7 14.4 37.7H8.4C8.08174 37.7 7.77652 37.8264 7.55147 38.0515C7.32643 38.2765 7.2 38.5817 7.2 38.9V54.5C7.20285 55.4539 7.58305 56.3679 8.25756 57.0424C8.93208 57.717 9.8461 58.0972 10.8 58.1H32.736L29.376 62.9ZM10.8 55.7C10.4817 55.7 10.1765 55.5736 9.95147 55.3485C9.72643 55.1235 9.6 54.8183 9.6 54.5V50.9H31.2V48.5H9.6V40.1H14.4C15.9913 40.1 17.5174 39.4679 18.6426 38.3426C19.7679 37.2174 20.4 35.6913 20.4 34.1C20.4 32.5087 19.7679 30.9826 18.6426 29.8574C17.5174 28.7321 15.9913 28.1 14.4 28.1H9.6V4.1C9.6 3.78174 9.72643 3.47652 9.95147 3.25147C10.1765 3.02643 10.4817 2.9 10.8 2.9H39.6C39.9183 2.9 40.2235 3.02643 40.4485 3.25147C40.6736 3.47652 40.8 3.78174 40.8 4.1V28.772C40.0713 28.3346 39.2379 28.1024 38.388 28.1C37.1191 28.1032 35.9031 28.6086 35.0059 29.5059C34.1086 30.4031 33.6032 31.6191 33.6 32.888V43.652C33.6024 44.6171 33.7688 45.5747 34.092 46.484L37.38 55.7H10.8ZM45.6 70.1H42V62.9H45.6V70.1ZM51.6 70.1H48V62.9H51.6V70.1ZM57.6 70.1H54V62.9H57.6V70.1ZM63.6 70.1H60V62.9H63.6V70.1ZM69.6 43.652C69.5986 44.3388 69.4809 45.0204 69.252 45.668L63.96 60.5H41.64L36.348 45.68C36.1201 45.0281 36.0024 44.3426 36 43.652V32.888C36.0016 32.2515 36.256 31.6417 36.7072 31.1927C37.1584 30.7437 37.7695 30.4924 38.406 30.494C39.0425 30.4956 39.6523 30.75 40.1013 31.2012C40.5503 31.6524 40.8016 32.2635 40.8 32.9V42.5H43.2V12.5C43.2047 11.8649 43.4591 11.2572 43.9082 10.8081C44.3572 10.3591 44.9649 10.1047 45.6 10.1C46.2359 10.1019 46.8453 10.3554 47.295 10.805C47.7446 11.2547 47.9981 11.8641 48 12.5V42.5H50.4V36.5C50.4047 35.8649 50.6591 35.2572 51.1082 34.8082C51.5572 34.3591 52.1649 34.1047 52.8 34.1C53.4359 34.1019 54.0453 34.3554 54.495 34.805C54.9446 35.2547 55.1981 35.8641 55.2 36.5V42.5H57.6V37.7C57.6002 37.3852 57.6629 37.0735 57.7844 36.783C57.906 36.4926 58.0839 36.2292 58.308 36.008C58.5618 35.7402 58.8799 35.542 59.232 35.432C59.4783 35.3435 59.7383 35.2988 60 35.3C60.6359 35.3019 61.2453 35.5554 61.695 36.005C62.1446 36.4547 62.3981 37.0641 62.4 37.7V43.7H64.8V38.9C64.8019 38.2641 65.0554 37.6547 65.505 37.205C65.9547 36.7554 66.5641 36.5019 67.2 36.5C67.8351 36.5047 68.4428 36.7591 68.8919 37.2082C69.3409 37.6572 69.5953 38.2649 69.6 38.9V43.652Z" fill="#FFB541"/>
<path d="M25.1992 5.2998C22.8258 5.2998 20.5058 6.00359 18.5324 7.32217C16.559 8.64075 15.0209 10.5149 14.1127 12.7076C13.2044 14.9003 12.9668 17.3131 13.4298 19.6409C13.8928 21.9687 15.0357 24.1069 16.7139 25.7851C18.3922 27.4633 20.5304 28.6062 22.8581 29.0692C25.1859 29.5323 27.5987 29.2946 29.7914 28.3864C31.9841 27.4781 33.8583 25.94 35.1769 23.9666C36.4954 21.9933 37.1992 19.6732 37.1992 17.2998C37.1941 14.1188 35.9282 11.0695 33.6789 8.82013C31.4296 6.5708 28.3803 5.30488 25.1992 5.2998ZM25.1992 26.8998C23.3005 26.8998 21.4445 26.3368 19.8658 25.2819C18.287 24.2271 17.0566 22.7277 16.33 20.9736C15.6034 19.2194 15.4133 17.2892 15.7837 15.4269C16.1541 13.5647 17.0684 11.8542 18.411 10.5116C19.7536 9.169 21.4641 8.25468 23.3264 7.88427C25.1886 7.51385 27.1188 7.70396 28.873 8.43056C30.6272 9.15716 32.1265 10.3876 33.1813 11.9663C34.2362 13.545 34.7992 15.4011 34.7992 17.2998C34.7957 19.8448 33.7832 22.2846 31.9836 24.0842C30.184 25.8838 27.7442 26.8963 25.1992 26.8998Z" fill="#FFB541"/>
<path d="M21.5996 14.8458C21.5996 15.1664 21.8602 15.4264 22.1818 15.4264H25.842C25.5976 16.1266 24.9331 16.6303 24.1532 16.6303H22.9445C22.5765 16.6303 22.2486 16.8356 22.0885 17.1661C21.9286 17.4966 21.9713 17.8804 22.2002 18.1678L25.7544 22.6303C25.8693 22.7747 26.0392 22.8499 26.2106 22.8499C26.3375 22.8499 26.4653 22.8087 26.5723 22.7239C26.8241 22.5244 26.8661 22.1591 26.6661 21.908L23.3877 17.7917H24.1532C25.5793 17.7917 26.7724 16.7744 27.0471 15.4265H28.0674C28.389 15.4265 28.6495 15.1665 28.6495 14.8458C28.6495 14.5252 28.389 14.2652 28.0674 14.2652H27.061C26.9831 13.8284 26.8059 13.4179 26.5394 13.0613H28.0675C28.389 13.0613 28.6496 12.8013 28.6496 12.4806C28.6496 12.16 28.389 11.9 28.0675 11.9L22.1818 11.8999C21.8603 11.8999 21.5997 12.1599 21.5997 12.4805C21.5997 12.8012 21.8603 13.0612 22.1818 13.0612H23.4374L23.4389 13.0613H24.2255C24.6839 13.0616 25.1149 13.2398 25.4391 13.5631C25.6393 13.7627 25.7835 14.0031 25.865 14.2653H22.1818C21.8602 14.2651 21.5996 14.5251 21.5996 14.8458Z" fill="#FFB541"/>
</svg>
