<svg width="85" height="77" viewBox="0 0 85 77" fill="none" xmlns="http://www.w3.org/2000/svg">
<path d="M23.7207 44.4291C23.7207 45.1133 24.2752 45.668 24.9596 45.668H32.7492C32.229 47.162 30.8148 48.2368 29.155 48.2368H26.5827C25.7998 48.2368 25.1018 48.6749 24.7612 49.3801C24.4208 50.0853 24.5118 50.9041 24.9989 51.5173L32.5627 61.039C32.8073 61.347 33.1688 61.5075 33.5337 61.5075C33.8037 61.5075 34.0756 61.4196 34.3034 61.2386C34.8391 60.8131 34.9285 60.0335 34.503 59.4978L27.526 50.7148H29.155C32.19 50.7148 34.7293 48.5443 35.3139 45.6682H37.4851C38.1695 45.6682 38.724 45.1135 38.724 44.4293C38.724 43.7451 38.1695 43.1904 37.4851 43.1904H35.3435C35.1776 42.2584 34.8005 41.3826 34.2332 40.6215H37.4853C38.1697 40.6215 38.7242 40.0668 38.7242 39.3826C38.7242 38.6984 38.1697 38.1437 37.4853 38.1437L24.9598 38.1436C24.2754 38.1436 23.7209 38.6983 23.7209 39.3825C23.7209 40.0667 24.2754 40.6214 24.9598 40.6214H27.6318L27.635 40.6215H29.309C30.2846 40.6224 31.2017 41.0025 31.8917 41.6923C32.3177 42.1181 32.6246 42.631 32.7981 43.1905H24.9596C24.2752 43.1902 23.7207 43.7449 23.7207 44.4291Z" fill="#FFB541"/>
<path d="M83.8745 69.1333L77.8696 58.7326C77.5275 58.1399 76.7694 57.9369 76.1772 58.2791C75.5847 58.6212 75.3817 59.379 75.7238 59.9715L81.7287 70.372C82.4912 71.693 82.0369 73.3882 80.7161 74.1508C79.3952 74.9132 77.6999 74.4593 76.9374 73.1382L66.1213 54.4043C65.7519 53.7644 65.6538 53.0191 65.8449 52.3053C66.0362 51.5917 66.4939 50.995 67.1339 50.6257C67.7735 50.2563 68.5186 50.1579 69.2329 50.3493C69.9465 50.5406 70.5432 50.9983 70.9125 51.6381L72.8328 54.9645C73.1748 55.5572 73.9323 55.76 74.5252 55.4179C75.1177 55.0758 75.3207 54.3181 74.9786 53.7256L73.0583 50.3992C72.3581 49.1861 71.227 48.3183 69.874 47.9559C68.5208 47.5935 67.1079 47.7793 65.8948 48.4797C64.6816 49.1799 63.8139 50.3108 63.4515 51.6639C63.0889 53.0169 63.2749 54.4301 63.9753 55.6431L65.6255 58.5013H62.4247C62.1515 54.0122 58.591 46.8125 51.8268 37.0805C48.34 32.0639 44.8235 27.5757 42.8858 25.1642C44.0877 24.8272 45.0863 24.0011 45.6527 22.9143C48.4475 23.2592 50.6752 25.9141 51.5081 28.589C51.6774 29.1318 51.8289 29.6809 51.9895 30.2622C52.6069 32.5 53.2457 34.8141 54.9029 36.644C55.1474 36.9141 55.484 37.0512 55.8216 37.0512C56.1183 37.0512 56.4158 36.9453 56.6529 36.7306C57.16 36.2714 57.199 35.4877 56.7396 34.9806C55.4776 33.5871 54.9433 31.6517 54.3779 29.6029C54.2192 29.0277 54.055 28.4331 53.8738 27.8519C53.2422 25.8233 52.0651 23.9665 50.5593 22.6237C49.2272 21.4357 47.7227 20.71 46.1418 20.4796C46.082 19.7536 45.8489 19.0762 45.4832 18.4891C47.28 17.4023 48.9822 17.235 50.6567 17.98C51.4083 18.315 52.1211 18.8286 52.876 19.3725C54.1366 20.2807 55.4401 21.22 57.1306 21.4853C57.1958 21.4955 57.2604 21.5005 57.3242 21.5005C57.9238 21.5005 58.4508 21.0644 58.5467 20.4533C58.653 19.7774 58.1909 19.1434 57.515 19.0374C56.4087 18.8637 55.3965 18.1343 54.3246 17.362C53.5014 16.7688 52.65 16.1555 51.665 15.7164C49.0428 14.5495 46.2555 14.922 43.559 16.7853C43.1688 16.6041 42.7485 16.4773 42.3075 16.415C42.9678 15.6315 43.5869 14.7549 44.1469 13.8032C44.4622 13.266 44.7448 12.7292 44.9868 12.2077C45.2749 11.5871 45.0052 10.8503 44.3846 10.5622C43.7641 10.2743 43.0274 10.5439 42.7393 11.1645C42.5305 11.6143 42.2852 12.08 42.0107 12.5478C41.094 14.1057 40.0127 15.4179 38.8666 16.3699H35.8302C35.9833 15.8235 36.1277 15.2366 36.2618 14.6092C36.5327 13.3395 36.7172 12.1178 36.8102 10.9775C36.8661 10.2955 36.3584 9.69748 35.6764 9.64182C34.996 9.58483 34.3967 10.0938 34.3408 10.7757C34.2561 11.8102 34.0873 12.9261 33.8385 14.0918C33.6598 14.9286 33.4576 15.6997 33.2437 16.3697H29.2012C28.9888 15.7044 28.7867 14.9334 28.607 14.092C28.3572 12.9218 28.1891 11.8066 28.1068 10.7776C28.0521 10.0956 27.4576 9.58697 26.7729 9.64148C26.0909 9.69616 25.5823 10.2931 25.6368 10.9752C25.7278 12.1112 25.9118 13.3338 26.184 14.6093C26.3185 15.2385 26.4627 15.8251 26.6152 16.3696H23.5774C22.4311 15.4174 21.35 14.1052 20.4339 12.548C18.1721 8.69975 18.2228 5.56961 20.581 3.49535C21.3934 2.77959 22.6612 1.94358 24.2822 2.93817C25.8505 3.89874 27.6735 3.94813 29.1587 3.07082C30.483 2.28915 31.9603 2.28816 33.2856 3.07066C34.7706 3.9478 36.5943 3.89841 38.1651 2.93768C38.9401 2.46161 40.1678 2.00173 41.865 3.49502C42.7616 4.28528 43.3312 5.23279 43.5581 6.3113C43.699 6.98097 44.3557 7.40931 45.0255 7.26857C45.6952 7.12766 46.1238 6.47071 45.9827 5.80104C45.6435 4.18848 44.8093 2.78719 43.5025 1.63551C41.3953 -0.218393 39.0396 -0.50615 36.8707 0.824931C36.0852 1.30513 35.238 1.34593 34.5458 0.937258C33.4966 0.31764 32.3789 0.00361849 31.2232 0.00361849C30.0669 0.00361849 28.9485 0.31764 27.899 0.937258C27.2069 1.34593 26.3606 1.30546 25.5776 0.825757C23.4059 -0.506811 21.0498 -0.219219 18.9442 1.63534C17.4137 2.98162 16.5093 4.72914 16.3291 6.68925C16.1302 8.84891 16.7928 11.2425 18.2983 13.804C18.8578 14.7552 19.4768 15.6315 20.137 16.4148C17.9638 16.7222 16.2867 18.5935 16.2867 20.8501C16.2867 22.9017 17.6732 24.6346 19.5582 25.1635C18.3687 26.6436 16.5863 28.9028 14.59 31.5761C14.1805 32.1243 14.293 32.9007 14.8413 33.31C15.0639 33.4762 15.3239 33.5563 15.5818 33.5563C15.9593 33.5563 16.3321 33.3844 16.5754 33.0586C19.3694 29.3175 21.7352 26.4007 22.6142 25.3305H39.8312C41.1003 26.8763 45.4685 32.2725 49.793 38.4943C57.6726 49.8311 59.7183 55.5993 59.9446 58.501H44.3068C41.4156 58.501 39.0635 60.8537 39.0635 63.7458C39.0635 65.3502 39.7885 66.7876 40.9272 67.7502C39.7881 68.7129 39.0629 70.1508 39.0629 71.7556C39.0629 72.7702 39.3534 73.7177 39.8543 74.5212H16.6149C13.5054 74.5212 9.9134 72.603 7.73259 70.7022C5.33539 68.6129 2.47781 64.8946 2.47781 59.0481C2.47781 56.2766 4.3294 50.3374 13.1502 37.7817C13.5436 37.2217 13.4086 36.4489 12.8488 36.0558C12.2886 35.6625 11.516 35.7974 11.1229 36.3573C3.74232 46.8629 0 54.4972 0 59.0481C0 65.8262 3.31961 70.1427 6.1045 72.5705C9.19103 75.2609 13.3166 76.9995 16.6149 76.9995L65.9384 77C68.8298 77 71.1824 74.6476 71.1824 71.756C71.1824 70.1513 70.4573 68.7134 69.3181 67.7507C69.7022 67.4261 70.0388 67.0478 70.3168 66.6269L74.7915 74.3773C75.7616 76.0578 77.5279 76.9984 79.3417 76.9984C80.2307 76.9984 81.1312 76.7724 81.955 76.2968C84.4591 74.8511 85.3202 71.6375 83.8745 69.1333ZM18.7638 20.8506C18.7638 19.7463 19.6623 18.848 20.7664 18.848H41.6778C42.7821 18.848 43.6804 19.7465 43.6804 20.8506C43.6804 21.9549 42.7819 22.8532 41.6778 22.8532H20.7664C19.6623 22.8532 18.7638 21.9547 18.7638 20.8506ZM68.7045 71.756C68.7045 73.2813 67.4636 74.522 65.9384 74.522H45.84C45.8362 74.522 45.8326 74.5215 45.8288 74.5215H44.295C42.775 74.5154 41.5399 73.2775 41.5399 71.756C41.5399 70.2305 42.7808 68.9896 44.3059 68.9896H65.9379C67.4636 68.9896 68.7045 70.2306 68.7045 71.756ZM65.9379 66.5117H44.3059C42.7809 66.5117 41.5404 65.2712 41.5404 63.7462C41.5404 62.2205 42.7809 60.9793 44.3058 60.9793H65.9376C66.3986 60.9793 66.8458 61.0938 67.2468 61.3097L68.7005 63.8275C68.6569 65.3145 67.4361 66.5117 65.9379 66.5117Z" fill="#FFB541"/>
</svg>
